<?xml version="1.0" encoding="utf-8"?>
<!-- Generator: Adobe Illustrator 24.0.0, SVG Export Plug-In . SVG Version: 6.00 Build 0)  -->
<svg version="1.1" id="Layer_1" xmlns="http://www.w3.org/2000/svg" xmlns:xlink="http://www.w3.org/1999/xlink" x="0px" y="0px"
	 viewBox="0 0 1280 1024" style="enable-background:new 0 0 1280 1024;" xml:space="preserve">
<style type="text/css">
	.st0{fill:#02A5DC;}
	.st1{fill:#EDDF0C;}
</style>
<g>
	<path class="st0" d="M506.74,543.58c0.39-3.72,0.52-7.49,1.24-11.14c0.93-4.66,3.64-8.58,6.11-12.56c0.82-1.32,1.74-2.59,2.6-3.89
		c1.33-1.99-0.05-4.93-2.47-5.25c-7.17-0.93-14.34-1.84-21.51-2.78c-6.84-0.89-13.68-1.8-20.52-2.73
		c-6.51-0.88-13.02-1.79-19.53-2.67c-3.78-0.51-7.59-0.88-11.35-1.55c-3.23-0.58-5.97-4.06-6.11-7.35c-0.1-2.22-0.23-4.45-0.24-6.68
		c-0.02-5.13,1.46-9.95,3.18-14.73c1.94-5.39,4.71-10.32,8.27-14.78c8.07-10.12,18.22-17.13,31.07-19.52
		c12.81-2.38,24.46,0.74,34.86,8.53c6.6,4.95,11.62,11.24,15.51,18.48c1.81,3.38,3.38,6.85,4.13,10.62
		c0.21,1.07,0.29,2.25,0.08,3.31c-0.27,1.32-0.27,1.98-2.34,2.04c-2.42,0.07-4.83,0.41-7.24,0.7c-2.27,0.28-3.7-0.8-4.65-2.7
		c-2.04-4.1-4.46-7.96-7.38-11.49c-5.23-6.32-11.37-11.47-19.59-13.18c-9.99-2.08-19.22-0.06-27.28,6.39
		c-6.52,5.22-10.76,12.04-13.46,19.86c-0.8,2.33-0.36,3.38,1.98,3.95c2.26,0.55,4.61,0.77,6.93,1.08c3.79,0.49,7.58,0.94,11.37,1.4
		c3.14,0.38,6.29,0.72,9.43,1.1c3.83,0.46,7.66,0.95,11.49,1.41c3.02,0.36,6.04,0.7,9.06,1.06c3.87,0.47,7.74,0.97,11.62,1.43
		c3.75,0.45,7.52,0.82,11.27,1.32c2.7,0.36,5.53,0.23,7.91,1.96c2.24,1.62,4.07,3.64,4.47,6.39c0.26,1.81-0.1,3.76-0.41,5.6
		c-1.3,7.76-4.94,14.55-8.97,21.17c-1.7,2.8-3.86,5.45-4.41,8.75c-0.49,2.91-0.5,5.9-0.64,8.86c-0.14,2.8-0.14,5.61-0.25,8.42
		c-0.1,2.3-2.88,5.13-5.52,5.68c-3.82,0.8-7.69-2.12-7.97-6.03c-0.12-1.77-0.17-3.54-0.26-5.31c-0.09-1.73-0.19-3.46-0.29-5.18
		C506.87,543.6,506.8,543.59,506.74,543.58z"/>
	<path class="st1" d="M448.46,554.37c-1.74-0.67-3.52-1.25-5.22-2.01c-7.51-3.36-13.99-8.18-19.48-14.26
		c-8.46-9.37-13.96-20.25-16.41-32.67c-0.98-4.94-1.52-9.92-1.41-14.94c0.16-7,1.18-13.88,3.15-20.62
		c2.04-6.97,5.23-13.36,9.54-19.16c5.35-7.21,11.96-13.09,19.65-17.73c6.44-3.88,13.3-6.78,20.67-8.28
		c3.52-0.72,7.12-1.12,10.7-1.44c4.81-0.43,9.58,0.02,14.47,1.08c-3.31,0.66-6.45,1.23-9.57,1.93c-8.28,1.86-16.19,4.73-23.64,8.83
		c-4.54,2.5-8.76,5.46-12.68,8.87c-6.19,5.39-11.14,11.75-14.85,19.04c-2.78,5.46-4.81,11.24-5.73,17.32
		c-0.55,3.61-0.88,7.27-1.02,10.91c-0.46,11.53,2.13,22.44,6.95,32.87c3.19,6.91,7.37,13.14,12.45,18.82
		c3.7,4.14,7.87,7.7,12.39,10.89c0.06,0.04,0.08,0.13,0.12,0.2C448.53,554.14,448.49,554.26,448.46,554.37z"/>
	<path d="M470.23,580.41c0.02-2.75,1.68-4.76,4.6-5.54c10.06-2.67,20.11-5.34,30.17-8.01c2.03-0.54,4.06-1.11,6.11-1.59
		c3.33-0.79,6.59,1.24,7.42,4.56c0.8,3.21-1.01,6.07-4.46,6.99c-11.93,3.18-23.86,6.35-35.79,9.5
		C474.03,587.45,470.2,584.61,470.23,580.41z"/>
	<path d="M801.95,507.62c0.23-1.11,0.46-2.22,0.69-3.34c1.61,0,3.14,0,4.76,0c0,13.12,0,26.21,0,39.38c-1.88,0-3.75,0-5.69,0
		c0-5.16,0-10.31,0-15.53c-0.13,0.1-0.28,0.16-0.35,0.28c-2.99,4.67-11.27,4.73-14.83,1.23c-2.14-2.1-3.24-4.68-3.67-7.56
		c-0.64-4.31-0.5-8.56,1.37-12.63c3.41-7.42,13.57-7.14,17.13-2.24c0.12,0.17,0.21,0.36,0.32,0.54
		C801.77,507.7,801.86,507.66,801.95,507.62z M802.09,518.33c-0.32-1.96-0.47-3.92-0.98-5.77c-0.72-2.58-2.66-3.88-5.46-4.06
		c-2.66-0.16-4.8,0.76-5.85,3.26c-1.71,4.05-1.74,8.22-0.07,12.29c1.06,2.61,3.34,3.39,5.99,3.23c2.56-0.15,4.63-1.16,5.41-3.76
		C801.62,521.86,801.78,520.08,802.09,518.33z"/>
	<path d="M656.06,442.69c1.94,0,3.79,0,5.69,0c0,4.84,0,9.63,0,14.44c0.04-0.01,0.18-0.01,0.23-0.07c2.77-3.59,6.53-4.33,10.68-3.46
		c4.03,0.84,6.28,3.69,7.34,7.47c1.34,4.73,1.35,9.52-0.5,14.12c-2.92,7.27-12.12,8.86-17.43,3.09c-0.11-0.12-0.16-0.3-0.23-0.45
		c-0.11,0.03-0.21,0.06-0.32,0.08c-0.29,0.82-0.53,1.67-0.9,2.46c-0.15,0.32-0.56,0.71-0.88,0.73c-1.19,0.09-2.39,0.03-3.69,0.03
		C656.06,468.31,656.06,455.55,656.06,442.69z M675.14,467.31c-0.46-2-0.7-4.07-1.42-5.97c-0.98-2.57-3.21-3.41-5.83-3.25
		c-2.41,0.14-4.4,1.06-5.18,3.51c-1.24,3.88-1.25,7.82,0.06,11.69c0.81,2.42,2.74,3.41,5.16,3.58c2.49,0.17,4.45-0.69,5.65-2.99
		C674.63,471.83,674.79,469.62,675.14,467.31z"/>
	<path d="M589.37,558.02c0-4.6,0-9.37,0-14.21c1.83,0,3.71,0,5.66,0c0,12.8,0,25.57,0,38.43c-1.39,0-2.7,0.04-4.02-0.04
		c-0.27-0.02-0.62-0.44-0.74-0.75c-0.33-0.87-0.55-1.77-0.82-2.68c-0.18,0.08-0.29,0.09-0.33,0.14c-2.86,3.72-6.74,4.48-11.01,3.49
		c-4.2-0.98-6.34-4.12-7.32-8.1c-1.04-4.22-1.01-8.46,0.37-12.6c2.17-6.5,9.2-9.36,15.04-6.13
		C587.4,556.24,588.4,557.26,589.37,558.02z M575.94,568.95c0.42,1.9,0.62,3.74,1.24,5.42c0.99,2.7,3.15,3.83,6.24,3.61
		c2.93-0.21,4.81-1.62,5.51-4.35c0.85-3.34,0.82-6.73-0.1-10.06c-0.78-2.83-2.78-4.28-5.75-4.38c-2.93-0.1-5.02,1.13-5.93,3.9
		C576.53,564.98,576.32,567.02,575.94,568.95z"/>
	<path d="M682.48,582.18c0-12.1,0-24.08,0-36.14c6.82,0,13.59,0,20.44,0c0,1.59,0,3.14,0,4.84c-4.76,0-9.53,0-14.4,0
		c0,3.38,0,6.62,0,9.98c4.48,0,8.93,0,13.45,0c0,1.7,0,3.29,0,4.99c-4.49,0-8.94,0-13.47,0c0,3.82,0,7.53,0,11.37
		c4.76,0,9.54,0,14.41,0c0,1.72,0,3.31,0,4.96C696.1,582.18,689.34,582.18,682.48,582.18z"/>
	<path d="M710.2,575.63c2.96,0.69,5.81,1.53,8.73,1.95c1.71,0.25,3.55-0.01,5.26-0.38c1.73-0.37,2.86-1.62,3.19-3.43
		c0.35-1.92-0.16-3.64-1.83-4.67c-1.85-1.15-3.86-2.03-5.81-3.02c-1.47-0.75-3.02-1.38-4.4-2.27c-3.78-2.42-5.41-6.39-4.55-10.71
		c0.76-3.77,3.78-6.57,8.13-7.34c4.78-0.84,9.37-0.04,13.95,1.91c-0.62,1.59-1.23,3.15-1.79,4.59c-2.44-0.58-4.78-1.29-7.16-1.64
		c-1.38-0.21-2.92-0.09-4.27,0.3c-3.3,0.96-4.27,5.1-1.76,7.47c0.97,0.91,2.22,1.57,3.43,2.18c2.32,1.17,4.77,2.1,7.05,3.34
		c4.65,2.52,6,6.94,4.46,12.01c-0.99,3.25-3.5,5.12-6.61,6c-5.07,1.44-10.14,1.11-15.12-0.63c-0.69-0.24-0.95-0.6-0.93-1.35
		C710.24,578.43,710.2,576.92,710.2,575.63z"/>
	<path d="M592.8,497c-0.68,1.71-1.29,3.23-1.83,4.59c-2.48-0.59-4.82-1.28-7.21-1.64c-1.34-0.2-2.84-0.09-4.15,0.29
		c-3.37,0.97-4.34,5.15-1.76,7.54c0.98,0.9,2.24,1.54,3.44,2.16c2.61,1.34,5.36,2.4,7.87,3.9c5.49,3.27,4.84,10.72,2.3,13.89
		c-1.86,2.31-4.35,3.55-7.2,4.02c-4.3,0.7-8.57,0.46-12.74-0.92c-1.01-0.33-1.59-0.77-1.45-2c0.15-1.35,0.03-2.72,0.03-4.02
		c2.32,0.65,4.54,1.47,6.84,1.85c1.97,0.33,4.03,0.33,6.03,0.16c2.32-0.19,3.89-1.66,4.3-3.53c0.48-2.19-0.29-4.06-2.47-5.33
		c-1.67-0.97-3.49-1.69-5.22-2.57c-1.72-0.88-3.53-1.67-5.09-2.79c-3.42-2.44-4.46-5.97-3.79-9.98c0.64-3.83,3.16-6.11,6.77-7.14
		C582.7,493.97,587.74,494.95,592.8,497z"/>
	<path d="M873,525.59c0,1.48,0.05,2.77-0.03,4.04c-0.02,0.34-0.37,0.84-0.69,0.96c-4.75,1.81-9.58,2.16-14.43,0.49
		c-2.82-0.97-4.97-2.9-6.17-5.62c-2.39-5.42-2.29-10.91,0.53-16.13c2.48-4.59,7.74-6.51,13.58-5.31c4.72,0.97,7.89,4.56,8.43,9.77
		c0.18,1.71,0.03,3.45,0.03,5.31c-5.91,0-11.88,0-17.83,0c-0.92,4.25,2.61,8.34,7.12,8.46C866.77,527.64,869.85,526.96,873,525.59z
		 M856.36,514.83c4.06,0,8.11,0,12.16,0c0.09-3.96-2.06-6.48-5.54-6.57C859.08,508.16,856.45,510.76,856.36,514.83z"/>
	<path d="M665.82,525.59c0,1.49,0.05,2.77-0.03,4.05c-0.02,0.34-0.38,0.83-0.69,0.95c-4.75,1.81-9.58,2.16-14.43,0.48
		c-2.82-0.97-4.97-2.9-6.17-5.62c-2.38-5.42-2.29-10.91,0.54-16.13c2.49-4.59,7.75-6.51,13.58-5.31c4.72,0.97,7.88,4.56,8.43,9.78
		c0.18,1.71,0.03,3.45,0.03,5.31c-5.91,0-11.89,0-17.84,0c-0.88,4.29,2.62,8.33,7.13,8.45C659.6,527.64,662.67,526.96,665.82,525.59
		z M649.18,514.83c4.05,0,8.11,0,12.16,0c0.08-4.03-2.1-6.52-5.68-6.57C651.85,508.21,649.24,510.84,649.18,514.83z"/>
	<path d="M627.83,569.85c-6.01,0-11.99,0-17.97,0c-0.35,4.84,2.82,8.38,7.48,8.36c1.56-0.01,3.14-0.16,4.67-0.46
		c1.49-0.29,2.92-0.85,4.55-1.35c0,1.39,0.04,2.77-0.03,4.14c-0.01,0.26-0.39,0.62-0.67,0.73c-4.8,1.81-9.71,2.26-14.55,0.43
		c-4.96-1.88-7.1-5.97-7.56-11.02c-0.32-3.59,0.02-7.12,1.81-10.36c2.62-4.74,7.64-6.8,13.66-5.65c4.82,0.92,8,4.51,8.58,9.9
		C627.98,566.25,627.83,567.95,627.83,569.85z M609.93,565.51c4.06,0,8.11,0,12.16,0c0.11-3.95-2.05-6.48-5.54-6.58
		C612.66,558.83,610.03,561.43,609.93,565.51z"/>
	<path d="M598.12,446.71c-0.71,1.62-1.4,3.2-2.04,4.67c-2.09-0.63-4.02-1.44-6.02-1.77c-6.46-1.04-10.99,1.99-12.55,8.35
		c-1.01,4.1-0.91,8.21,0.54,12.21c1.5,4.12,4.82,6.56,9.2,6.41c2.78-0.1,5.54-0.78,8.3-1.21c0.36-0.06,0.71-0.18,1.15-0.29
		c0,1.69,0,3.29,0,5.23c-2.01,0.39-4.08,1.05-6.18,1.14c-2.83,0.12-5.75,0.16-8.49-0.41c-5.09-1.05-8.46-4.41-10.08-9.31
		c-1.8-5.44-1.91-10.98-0.12-16.46c2.14-6.54,7.61-10.6,14.49-10.88C590.86,444.19,595.16,445.02,598.12,446.71z"/>
	<path d="M639.98,453.85c2.05,0,3.9,0,5.84,0c0,9.07,0,18.11,0,27.22c-1.49,0-2.96,0-4.55,0c-0.28-1.1-0.56-2.23-0.88-3.52
		c-0.56,0.6-0.97,1.11-1.44,1.55c-3.3,3.07-10.28,3.49-13.92,0.84c-2.02-1.47-3.08-3.58-3.14-5.95c-0.18-6.61-0.13-13.23-0.16-19.85
		c0-0.07,0.07-0.15,0.13-0.27c1.87,0,3.76,0,5.8,0c0,0.49,0,0.93,0,1.38c0,4.92,0,9.85,0,14.77c0,0.29,0,0.58,0,0.87
		c0.08,3.73,1.49,5.63,4.44,5.97c3.77,0.43,6.53-1.27,7.34-4.72c0.36-1.51,0.5-3.1,0.52-4.66c0.07-4.05,0.02-8.11,0.02-12.16
		C639.98,454.86,639.98,454.41,639.98,453.85z"/>
	<path d="M841.57,531.51c-1.56,0-3.04,0-4.55,0c-0.28-1.16-0.56-2.27-0.87-3.54c-0.55,0.59-0.96,1.09-1.43,1.53
		c-3.29,3.08-10.26,3.51-13.92,0.87c-2.06-1.49-3.11-3.65-3.17-6.07c-0.17-6.57-0.12-13.15-0.15-19.73c0-0.07,0.06-0.15,0.12-0.28
		c1.86,0,3.75,0,5.81,0c0,0.5,0,0.99,0,1.47c0,4.88,0,9.77,0,14.65c0,0.33-0.01,0.66,0,0.99c0.1,3.65,1.51,5.52,4.42,5.87
		c3.76,0.45,6.54-1.26,7.36-4.7c0.36-1.51,0.5-3.1,0.53-4.66c0.07-4.05,0.02-8.11,0.02-12.16c0-0.45,0-0.9,0-1.43
		c1.98,0,3.86,0,5.83,0C841.57,513.34,841.57,522.38,841.57,531.51z"/>
	<path d="M699.77,531.57c-1.63,0-3.11,0-4.59,0c-0.4,0-0.81,0-1.33,0c0-0.56,0-1,0-1.45c0-4.92,0-9.85,0-14.77c0-0.25,0-0.5,0-0.74
		c-0.03-3.73-1.41-5.67-4.33-6.06c-3.79-0.51-6.63,1.2-7.48,4.7c-0.37,1.51-0.51,3.11-0.54,4.67c-0.07,4.05-0.02,8.11-0.02,12.17
		c0,0.45,0,0.9,0,1.42c-1.97,0-3.86,0-5.81,0c0-9.07,0-18.11,0-27.25c1.35,0,2.63-0.05,3.9,0.04c0.3,0.02,0.72,0.44,0.83,0.76
		c0.29,0.84,0.44,1.73,0.69,2.82c0.47-0.52,0.8-0.92,1.15-1.29c3.25-3.39,10.68-3.89,14.37-0.97c2.27,1.8,3.06,4.32,3.11,7.03
		c0.12,5.71,0.05,11.42,0.05,17.13C699.77,530.3,699.77,530.83,699.77,531.57z"/>
	<path d="M500.7,559.62c0,2.59-1.61,4.99-4.09,5.8c-6.91,2.25-13.84,4.47-20.78,6.62c-3.14,0.97-5.86-1.22-5.8-4.52
		c0.04-2.51,1.67-4.91,4.07-5.69c6.95-2.26,13.91-4.5,20.9-6.66C498.1,554.21,500.7,556.32,500.7,559.62z"/>
	<path d="M479.59,595.83c-0.01-2.71,1.66-5.05,4.29-5.9c6.68-2.16,13.37-4.28,20.06-6.41c1.84-0.59,3.62-0.57,5.04,0.97
		c1.44,1.56,1.58,3.41,0.91,5.33c-0.67,1.89-1.94,3.25-3.9,3.87c-6.85,2.19-13.68,4.4-20.54,6.53
		C482.24,601.22,479.59,599.18,479.59,595.83z"/>
	<path d="M762.72,498.08c-1.57-0.19-2.91-0.45-4.26-0.48c-1.94-0.05-3.08,0.96-3.48,2.85c-0.1,0.48-0.18,0.98-0.21,1.47
		c-0.04,0.7-0.01,1.4-0.01,2.26c2.21,0,4.37,0,6.62,0c0,1.57,0,2.99,0,4.51c-2.18,0-4.32,0-6.6,0c0,7.65,0,15.2,0,22.81
		c-2,0-3.84,0-5.85,0c0-7.54,0-15.09,0-22.76c-1.58,0-3.01,0-4.61,0c0-0.73-0.1-1.35,0.03-1.93c0.1-0.43,0.4-0.95,0.77-1.16
		c0.82-0.46,1.72-0.82,2.63-1.08c0.95-0.27,1.15-0.81,1.14-1.72c-0.01-1.19,0.05-2.41,0.27-3.57c0.74-3.78,2.67-5.65,6.52-6.29
		c2.85-0.48,5.67-0.18,8.51,0.83C763.68,495.32,763.18,496.75,762.72,498.08z"/>
	<path d="M620.31,525.45c0,1.35,0.04,2.79-0.03,4.24c-0.02,0.36-0.34,0.89-0.65,1.01c-4.97,2.02-9.93,2.18-14.63-0.68
		c-2.92-1.77-4.15-4.74-4.73-7.97c-0.54-3.04-0.49-6.1,0.24-9.11c1.33-5.49,5.26-8.77,10.93-9.17c3.67-0.26,7.28,0.37,9.47,1.71
		c-0.56,1.52-1.12,3.05-1.69,4.59c-1.54-0.4-2.99-0.87-4.48-1.13c-4.73-0.81-7.66,1.16-8.42,5.89c-0.33,2.05-0.33,4.23-0.01,6.28
		c0.71,4.5,3.66,6.56,8.17,5.84C616.41,526.65,618.29,525.98,620.31,525.45z"/>
	<path d="M710.45,508.71c-1.31,0-2.42,0-3.52,0c-0.57-2.17-0.49-2.71,1.36-3.44c2.1-0.83,2.89-2.41,3.47-4.39
		c0.91-3.12,0.99-3.09,4.23-2.82c0.07,0.01,0.14,0.06,0.32,0.15c0,1.93,0,3.9,0,6.02c2.65,0,5.19,0,7.79,0c0,1.53,0,2.92,0,4.46
		c-2.54,0-5.08,0-7.69,0c-0.03,0.55-0.07,0.95-0.07,1.35c0,4.26-0.01,8.52,0,12.79c0.01,3.47,1.65,4.88,5.11,4.42
		c0.94-0.12,1.87-0.32,2.95-0.52c0,1.3,0.03,2.56-0.03,3.82c-0.01,0.27-0.33,0.68-0.59,0.76c-2.94,0.9-5.94,1.22-8.89,0.15
		c-3.1-1.12-4.27-3.71-4.36-6.74c-0.14-4.8-0.06-9.6-0.08-14.4C710.45,509.84,710.45,509.35,710.45,508.71z"/>
	<path d="M657.28,582.2c-1.95,0-3.8,0-5.72,0c0-12.82,0-25.59,0-38.4c1.92,0,3.77,0,5.72,0
		C657.28,556.57,657.28,569.33,657.28,582.2z"/>
	<path d="M605.88,442.69c1.94,0,3.79,0,5.71,0c0,12.79,0,25.52,0,38.35c-1.85,0-3.73,0-5.71,0
		C605.88,468.31,605.88,455.55,605.88,442.69z"/>
	<path d="M748.2,582.2c-1.97,0-3.86,0-5.83,0c0-12.04,0-24.05,0-36.14c1.91,0,3.82,0,5.83,0C748.2,558.07,748.2,570.07,748.2,582.2z
		"/>
	<path d="M773.78,531.52c-1.94,0-3.79,0-5.71,0c0-9.09,0-18.13,0-27.23c1.92,0,3.77,0,5.71,0
		C773.78,513.35,773.78,522.38,773.78,531.52z"/>
	<path d="M731.83,504.3c1.95,0,3.79,0,5.71,0c0,9.06,0,18.07,0,27.17c-1.86,0-3.74,0-5.71,0
		C731.83,522.47,731.83,513.43,731.83,504.3z"/>
	<path d="M634.42,531.52c-1.95,0-3.8,0-5.72,0c0-9.09,0-18.14,0-27.23c1.92,0,3.77,0,5.72,0
		C634.42,513.35,634.42,522.38,634.42,531.52z"/>
	<path d="M671.35,559.07c-1.34,0-2.52,0-3.79,0c-0.34-4.33-0.67-8.6-1.01-12.98c1.91,0,3.77,0,5.78,0
		C672.01,550.38,671.68,554.68,671.35,559.07z"/>
	<path d="M771.02,500.27c-2.14,0.01-3.36-1.16-3.35-3.22c0.01-2.11,1.17-3.24,3.33-3.24c2.14,0,3.32,1.18,3.29,3.27
		C774.27,499.08,773.06,500.26,771.02,500.27z"/>
	<path d="M734.78,493.81c2.07,0.01,3.23,1.16,3.24,3.2c0.01,2.05-1.22,3.26-3.32,3.26c-2.12,0-3.33-1.2-3.3-3.27
		C731.43,494.9,732.6,493.8,734.78,493.81z"/>
	<path d="M631.56,500.27c-2.06-0.01-3.25-1.18-3.25-3.19c-0.01-2.15,1.19-3.29,3.43-3.26c2.05,0.02,3.21,1.2,3.2,3.25
		C634.92,499.1,633.69,500.28,631.56,500.27z"/>
</g>
</svg>
